<?xml version="1.0" encoding="UTF-8" standalone="no"?>
<svg
   xmlns:dc="http://purl.org/dc/elements/1.1/"
   xmlns:cc="http://creativecommons.org/ns#"
   xmlns:rdf="http://www.w3.org/1999/02/22-rdf-syntax-ns#"
   xmlns:svg="http://www.w3.org/2000/svg"
   xmlns="http://www.w3.org/2000/svg"
   xmlns:sodipodi="http://sodipodi.sourceforge.net/DTD/sodipodi-0.dtd"
   xmlns:inkscape="http://www.inkscape.org/namespaces/inkscape"
   inkscape:version="1.0.2 (e86c870879, 2021-01-15)"
   height="120"
   width="120"
   sodipodi:docname="alterosac-sac.svg"
   id="svg18"
   version="1.1"
   viewBox="0 0 120 120">
  <metadata
     id="metadata24">
    <rdf:RDF>
      <cc:Work
         rdf:about="">
        <dc:format>image/svg+xml</dc:format>
        <dc:type
           rdf:resource="http://purl.org/dc/dcmitype/StillImage" />
        <dc:title />
      </cc:Work>
    </rdf:RDF>
  </metadata>
  <defs
     id="defs22" />
  <sodipodi:namedview
     inkscape:current-layer="svg18"
     inkscape:window-maximized="1"
     inkscape:window-y="30"
     inkscape:window-x="1920"
     inkscape:cy="80.228199"
     inkscape:cx="37.863887"
     inkscape:zoom="3.7375"
     fit-margin-bottom="0"
     fit-margin-right="0"
     fit-margin-left="0"
     fit-margin-top="0"
     showgrid="false"
     id="namedview20"
     inkscape:window-height="1003"
     inkscape:window-width="1680"
     inkscape:pageshadow="2"
     inkscape:pageopacity="0"
     guidetolerance="10"
     gridtolerance="10"
     objecttolerance="10"
     borderopacity="1"
     bordercolor="#666666"
     pagecolor="#ffffff"
     inkscape:document-rotation="0" />
  <g
     transform="matrix(0.68248497,0,0,0.69636829,-187.41297,7.7476778)"
     id="g839"
     fill="#93921f"
     style="stroke-width:1.45056">
    <path
       id="path833"
       d="m 370,23.9 c 2.3,0.9 3.6,3.2 2.8,5.2 -0.7,2 -3.3,2.8 -5.6,1.9 -2.3,-1 -3.6,-3.3 -2.8,-5.2 0.7,-2 3.2,-2.9 5.6,-2"
       style="stroke-width:1.45056" />
    <path
       id="path835"
       d="m 370.6,24.5 c 0.9,-2.4 5.2,-3.9 9.8,-1 4,2.5 12.5,8.4 14.6,25 2,16.5 3.2,24 3.2,24 l -4,2.9 c 0.4,-5.8 -2.4,-33.3 -7.4,-40.7 -6,-8.8 -11.8,-10.6 -15,-8.6"
       style="stroke-width:1.45056" />
    <path
       id="path837"
       d="m 353.9,28.2 c -6.2,7.1 -23.7,14.7 -24.4,28 a 558.9,558.9 0 0 0 -1.2,48 c 0.3,12.7 -3.4,23.4 0,31.4 2.4,5.7 9.7,1 15.7,1.2 8.2,0.2 18,0.3 26.5,0.8 7.6,0.6 14.2,2.3 17.5,-0.1 3.2,-2.4 2.7,-27.4 1.8,-36.1 -1,-10.2 -0.9,-29.4 0.5,-44.4 1,-11.3 -18.3,-26.1 -22.7,-29 -1.1,-0.7 -3,0.9 -6.2,1.1 -3.8,0.3 -6.3,-2.3 -7.5,-0.9"
       style="stroke-width:1.45056" />
  </g>
  <g
     transform="matrix(0.75350275,0,0,0.75350275,-210.62538,-0.1794795)"
     id="g8"
     fill="#93921f"
     style="stroke-width:1.32714">
    <path
       id="path2"
       d="m 370,23.9 c 2.3,0.9 3.6,3.2 2.8,5.2 -0.7,2 -3.3,2.8 -5.6,1.9 -2.3,-1 -3.6,-3.3 -2.8,-5.2 0.7,-2 3.2,-2.9 5.6,-2"
       style="stroke-width:1.32714" />
    <path
       id="path4"
       d="m 370.6,24.5 c 0.9,-2.4 5.2,-3.9 9.8,-1 4,2.5 12.5,8.4 14.6,25 2,16.5 3.2,24 3.2,24 l -4,2.9 c 0.4,-5.8 -2.4,-33.3 -7.4,-40.7 -6,-8.8 -11.8,-10.6 -15,-8.6"
       style="stroke-width:1.32714" />
    <path
       id="path6"
       d="m 353.9,28.2 c -6.2,7.1 -23.7,14.7 -24.4,28 a 558.9,558.9 0 0 0 -1.2,48 c 0.3,12.7 -3.4,23.4 0,31.4 2.4,5.7 9.7,1 15.7,1.2 8.2,0.2 18,0.3 26.5,0.8 7.6,0.6 14.2,2.3 17.5,-0.1 3.2,-2.4 2.7,-27.4 1.8,-36.1 -1,-10.2 -0.9,-29.4 0.5,-44.4 1,-11.3 -18.3,-26.1 -22.7,-29 -1.1,-0.7 -3,0.9 -6.2,1.1 -3.8,0.3 -6.3,-2.3 -7.5,-0.9"
       style="stroke-width:1.32714" />
  </g>
</svg>
